<?xml version="1.0" standalone="no"?>
<!DOCTYPE svg PUBLIC "-//W3C//DTD SVG 1.1//EN" "http://www.w3.org/Graphics/SVG/1.1/DTD/svg11.dtd" >
<svg xmlns="http://www.w3.org/2000/svg">
<metadata>Generated by IcoMoon</metadata>
<defs>
<font id="icomoon" horiz-adv-x="1024">
<font-face units-per-em="1024" ascent="870.4" descent="-153.6" />
<missing-glyph horiz-adv-x="1024" />
<glyph unicode="&#x20;" d="" />
<glyph unicode="&#xe800;" glyph-name="up-open" horiz-adv-x="594" d="M577.536 280.32q16.384-16.384 16.384-41.984t-16.384-41.984q-38.912-38.912-79.872 0l-200.704 192.512-200.704-192.512q-40.96-38.912-79.872 0-16.384 16.384-16.384 41.984t16.384 41.984l239.616 229.376q16.384 16.384 40.96 16.384t40.96-16.384z" />
<glyph unicode="&#xe801;" glyph-name="down-open" horiz-adv-x="594" d="M577.536 425.728l-239.616-229.376q-18.432-18.432-40.96-18.432t-40.96 18.432l-239.616 229.376q-16.384 16.384-16.384 41.984t16.384 41.984q38.912 38.912 79.872 0l200.704-192.512 200.704 192.512q40.96 38.912 79.872 0 16.384-16.384 16.384-41.984t-16.384-41.984z" />
<glyph unicode="&#xe802;" glyph-name="cash" horiz-adv-x="970" d="M944.128 731.904l-448.512 131.072c-3.065 0.948-6.589 1.494-10.24 1.494s-7.175-0.546-10.494-1.561l0.254 0.067-449.536-131.072c-14.929-4.552-25.603-18.203-25.603-34.347 0-0.165 0.001-0.33 0.003-0.494v0.025-392.192c0-340.992 456.704-458.752 476.16-463.872 2.763-0.789 5.937-1.242 9.216-1.242s6.453 0.453 9.461 1.301l-0.245-0.059c27.648 7.168 475.136 125.952 475.136 463.872v392.192c0.002 0.139 0.003 0.304 0.003 0.469 0 16.144-10.674 29.795-25.349 34.28l-0.254 0.067zM898.048 304.896c0-262.144-352.256-374.784-412.672-392.192-60.416 17.408-413.696 130.048-413.696 392.192v365.568l413.696 119.808 412.672-119.808zM449.536 576.256v-36.864c-52.805-7.402-92.998-52.275-92.998-106.535 0-59.382 48.138-107.52 107.52-107.52 1.015 0 2.026 0.014 3.034 0.042l-0.148-0.003h54.272c19.794 0 35.84-16.046 35.84-35.84s-16.046-35.84-35.84-35.84v0h-107.52c-19.794 0-35.84-16.046-35.84-35.84s16.046-35.84 35.84-35.84v0h34.816v-35.84c0-20.077 16.275-36.352 36.352-36.352s36.352 16.275 36.352 36.352v0 35.84c59.382 0 107.52 48.138 107.52 107.52s-48.138 107.52-107.52 107.52v0h-54.272c-19.794 0-35.84 16.046-35.84 35.84s16.046 35.84 35.84 35.84v0h107.52c19.794 0 35.84 16.046 35.84 35.84s-16.046 35.84-35.84 35.84v0h-53.248v35.84c0 19.794-16.046 35.84-35.84 35.84s-35.84-16.046-35.84-35.84v0z" />
<glyph unicode="&#xe803;" glyph-name="payment" d="M84.992-70.912c-11.743 0.174-21.196 9.734-21.196 21.502 0 11.876 9.628 21.504 21.504 21.504s21.504-9.628 21.504-21.504c0-6.014-2.469-11.452-6.449-15.354l-0.003-0.003c-3.876-3.801-9.19-6.146-15.052-6.146-0.108 0-0.216 0.001-0.324 0.002h0.016zM197.632-160h-197.632v51.2h146.432v263.168h-146.432v51.2h197.632zM501.76-107.776h-270.336v260.096l3.072 6.144c16.878 29.178 41.336 52.321 70.712 67.141l0.968 0.443c27.992 13.667 60.907 21.659 95.689 21.659 31.27 0 61.032-6.459 88.024-18.116l-1.441 0.554c21.904-8.884 39.755-17.471 57.021-26.989l-2.749 1.389c15.36-8.192 28.672-15.36 43.008-20.48 5.018-2.162 11.155-4.263 17.468-5.928l0.964-0.216c26.685-2.734 49.323-17.914 62.257-39.562l0.207-0.374c5.468-13.286 8.642-28.71 8.642-44.876 0-3.668-0.163-7.299-0.484-10.884l0.033 0.463 129.024 2.048 66.56 73.728c12.874 14.384 31.497 23.395 52.224 23.395 38.653 0 69.987-31.334 69.987-69.987 0-17.925-6.739-34.277-17.822-46.659l0.059 0.067-101.376-112.64zM283.648-56.576h214.016l350.208 56.32 88.064 99.328c3.109 3.35 5.016 7.852 5.016 12.8 0 10.405-8.435 18.84-18.84 18.84-5.457 0-10.372-2.32-13.813-6.028l-0.011-0.012-81.92-91.136-317.44-5.12v51.2l114.688 2.048c0.48 3.333 0.755 7.182 0.755 11.095 0 8.838-1.4 17.35-3.99 25.325l0.163-0.58c-2.048 4.096-19.456 9.216-28.672 11.264-9.944 1.999-18.522 4.474-26.803 7.561l1.203-0.393c-16.384 7.168-31.744 15.36-47.104 23.552-13.158 7.462-29.317 15.356-45.945 22.354l-3.207 1.198c-19.542 8.427-42.292 13.328-66.188 13.328-26.548 0-51.682-6.049-74.101-16.845l1.024 0.445c-19.265-9.657-35.132-23.556-46.835-40.546l-0.269-0.414zM1024 749.312v55.296l-162.816 59.392-315.392-161.792h-272.384v-381.952h624.64v108.544c8.192-1.024 17.408-1.024 25.6-1.024 5.12-1.024 10.24-1.024 15.36-1.024 30.578 0.336 59.745 5.938 86.779 15.939l-1.787-0.579v54.272h-1.024c-25.479-11.778-55.295-18.648-86.715-18.648-3.355 0-6.693 0.078-10.010 0.233l0.469-0.017c-9.216 1.024-18.432 1.024-28.672 2.048-16.384 0-32.768 0-51.2-1.024-24.576 0-51.2-2.048-79.872-5.12l-31.744-3.072c-1.231-0.179-2.651-0.281-4.096-0.281-16.556 0-29.977 13.421-29.977 29.977 0 15.111 11.181 27.611 25.722 29.677l0.16 0.019 119.808 20.48c21.762 3.976 39.945 16.785 51.014 34.497l0.186 0.319c7.036 11.378 11.205 25.174 11.205 39.944 0 42.035-33.77 76.182-75.659 76.792l-0.057 0.001h-176.128l206.848 106.496zM833.536 651.008c4.966-0.057 9.566-1.579 13.4-4.152l-0.088 0.056c7.090-4.63 11.71-12.528 11.71-21.504s-4.62-16.874-11.612-21.444l-0.098-0.060c-2.655-1.55-5.771-2.637-9.094-3.059l-0.122-0.013-118.784-20.48c-41.872-3.548-74.513-38.41-74.513-80.896 0-44.829 36.341-81.169 81.169-81.169 2.343 0 4.663 0.099 6.955 0.294l-0.299-0.020c3.092 0.217 5.9 0.581 8.655 1.096l-0.463-0.072s83.968 7.168 106.496 8.192v-56.32h-522.24v279.552z" />
<glyph unicode="&#xe804;" glyph-name="shipping" horiz-adv-x="1734" d="M1719.296 448.256l-79.872 185.344c-28.942 66.198-93.855 111.617-169.376 111.617-0.214 0-0.428 0-0.641-0.001h-130.015v48.128c-0.568 38.792-31.864 70.088-70.602 70.655l-0.054 0.001h-905.216c-0.305 0.007-0.664 0.011-1.024 0.011-26.015 0-47.104-21.089-47.104-47.104 0-0.004 0-0.008 0-0.012v0.001c0-26.58 21.548-48.128 48.128-48.128v0h877.568v-350.208c0-0.002 0-0.004 0-0.007 0-42.981 34.843-77.824 77.824-77.824 0.36 0 0.72 0.002 1.078 0.007l-0.054-0.001h315.392v-221.184c0-9.049-7.335-16.384-16.384-16.384v0h-58.368c-31.088 52.334-87.268 86.895-151.531 87.040h-0.021c-64.115-0.79-120.036-35.13-151.104-86.246l-0.448-0.794h-487.424c-31.088 52.334-87.268 86.895-151.531 87.040h-0.021c-64.115-0.79-120.036-35.13-151.104-86.246l-0.448-0.794h-167.936c-26.298 0-47.616-21.318-47.616-47.616s21.318-47.616 47.616-47.616v0h144.384c0-96.707 78.397-175.104 175.104-175.104s175.104 78.397 175.104 175.104v0h440.32c0-96.707 78.397-175.104 175.104-175.104s175.104 78.397 175.104 175.104v0h38.912c61.202 0.579 110.592 50.328 110.592 111.611 0 0.002 0 0.003 0 0.005v0 254.976c-0.285 26.602-5.523 51.901-14.831 75.128l0.495-1.4zM618.496-64.768c-43.669 0.578-78.848 36.113-78.848 79.865 0 44.112 35.76 79.872 79.872 79.872 44.11 0 79.868-35.756 79.872-79.865v0c-0.578-44.235-36.572-79.872-80.89-79.872-0.002 0-0.005 0-0.007 0v0zM1409.024-64.768c-43.669 0.578-78.848 36.113-78.848 79.865 0 44.112 35.76 79.872 79.872 79.872 44.11 0 79.868-35.756 79.872-79.865v0c-0.578-44.235-36.572-79.872-80.89-79.872-0.002 0-0.005 0-0.007 0v0zM1338.368 648.96h129.024c0.405 0.007 0.883 0.011 1.362 0.011 35.69 0 66.303-21.736 79.323-52.693l0.211-0.566 68.608-160.768h-278.528zM226.304 570.112h335.872c26.298 0 47.616 21.318 47.616 47.616s-21.318 47.616-47.616 47.616v0h-335.872c-0.003 0-0.007 0-0.011 0-26.015 0-47.104-21.089-47.104-47.104 0-0.36 0.004-0.719 0.012-1.077l-0.001 0.053c0.56-25.786 21.318-46.544 47.051-47.103l0.053-0.001zM137.216 387.84h335.872c26.015 0 47.104 21.089 47.104 47.104s-21.089 47.104-47.104 47.104v0h-335.872c-0.305 0.007-0.664 0.011-1.024 0.011-26.015 0-47.104-21.089-47.104-47.104 0-0.004 0-0.008 0-0.012v0.001c0.574-26.136 21.897-47.104 48.117-47.104 0.004 0 0.008 0 0.011 0h-0.001zM433.152 252.672c0 0.003 0 0.007 0 0.011 0 26.015-21.089 47.104-47.104 47.104-0.36 0-0.719-0.004-1.077-0.012l0.053 0.001h-337.92c-26.298 0-47.616-21.318-47.616-47.616s21.318-47.616 47.616-47.616v0h335.872c1.244-0.119 2.689-0.187 4.15-0.187 25.449 0 46.080 20.631 46.080 46.080 0 0.786-0.020 1.568-0.059 2.344l0.004-0.109z" />
<glyph unicode="&#xe805;" glyph-name="delivery-fast" horiz-adv-x="1417" d="M793.6 864h-668.672c-68.996 0-124.928-55.932-124.928-124.928v0-640c0-68.996 55.932-124.928 124.928-124.928v0h66.56c17.631-77.128 85.653-133.804 166.912-133.804s149.281 56.676 166.69 132.655l0.222 1.149h440.32c17.631-77.128 85.653-133.804 166.912-133.804s149.281 56.676 166.69 132.655l0.222 1.149h117.76v368.64c-0.003 36.573-9.889 70.836-27.132 100.265l0.508-0.937-73.728 126.976c-27.299 46.257-76.889 76.801-133.612 76.801-0.187 0-0.374 0-0.561-0.001h-265.187v93.184c0 0.001 0 0.003 0 0.004 0 68.636-55.35 124.344-123.849 124.923h-0.055zM73.728 99.072v640c0 28.277 22.923 51.2 51.2 51.2v0h668.672c28.277 0 51.2-22.923 51.2-51.2v0-691.2h-319.488c-17.631 77.128-85.653 133.804-166.912 133.804s-149.281-56.676-166.69-132.655l-0.222-1.149h-66.56c-28.277 0-51.2 22.923-51.2 51.2v0zM358.4-87.296c-53.724 0.003-97.275 43.556-97.275 97.28 0 53.726 43.554 97.28 97.28 97.28 53.366 0 96.696-42.972 97.274-96.201v-0.055c0.003-0.304 0.005-0.664 0.005-1.024 0-53.726-43.554-97.28-97.28-97.28-0.002 0-0.004 0-0.006 0v0zM1132.544-87.296c-53.724 0.003-97.275 43.556-97.275 97.28 0 53.726 43.554 97.28 97.28 97.28 53.366 0 96.696-42.972 97.274-96.201v-0.055c0.003-0.304 0.005-0.664 0.005-1.024 0-53.726-43.554-97.28-97.28-97.28-0.002 0-0.004 0-0.006 0v0zM1299.456 47.872c-17.631 77.128-85.653 133.804-166.912 133.804s-149.281-56.676-166.69-132.655l-0.222-1.149h-47.104v300.032h423.936v-300.032zM1182.72 572.16c29.527-0.048 55.34-15.909 69.427-39.564l0.205-0.372 64.512-111.616h-398.336v151.552zM462.848 217.856c136.295 0 246.784 110.489 246.784 246.784s-110.489 246.784-246.784 246.784c-136.295 0-246.784-110.489-246.784-246.784v0c0-136.295 110.489-246.784 246.784-246.784v0zM462.848 637.696c0.303 0.002 0.662 0.003 1.021 0.003 96.142 0 174.080-77.938 174.080-174.080s-77.938-174.080-174.080-174.080c-96.142 0-174.080 77.938-174.080 174.080 0 0.359 0.001 0.718 0.003 1.076v-0.055c0.577 95.343 77.713 172.479 173.001 173.056h0.055zM460.8 420.608h75.776c20.359 0 36.864 16.505 36.864 36.864s-16.505 36.864-36.864 36.864v0h-38.912v60.416c0 20.359-16.505 36.864-36.864 36.864s-36.864-16.505-36.864-36.864v0-97.28c0-20.359 16.505-36.864 36.864-36.864v0z" />
<glyph unicode="&#xe806;" glyph-name="cart" d="M43.008 779.008h70.656l107.52-482.304c-51.93-25.375-87.067-77.805-87.067-138.442 0-1.009 0.010-2.016 0.029-3.020l-0.002 0.151c-0.12-2.207-0.188-4.79-0.188-7.388 0-77.491 60.616-140.824 137.019-145.17l0.385-0.017h566.272c1.989-0.326 4.281-0.512 6.616-0.512 23.753 0 43.008 19.255 43.008 43.008s-19.255 43.008-43.008 43.008c-2.336 0-4.628-0.186-6.862-0.545l0.246 0.033h-566.272c-29.95 4.97-52.505 30.684-52.505 61.665 0 2.084 0.102 4.145 0.302 6.176l-0.020-0.257c-0.123 1.47-0.193 3.181-0.193 4.909 0 30.95 22.51 56.643 52.051 61.6l0.366 0.051h566.272c18.368 0.271 33.924 12.014 39.841 28.372l0.095 0.3 144.384 399.36c1.559 4.27 2.461 9.2 2.461 14.34 0 23.538-18.909 42.659-42.365 43.003h-764.96l-27.648 122.88c-4.298 19.127-20.905 33.286-40.906 33.791l-0.054 0.001h-105.472c-20.737-3.318-36.392-21.079-36.392-42.496s15.655-39.178 36.146-42.463l0.246-0.033zM920.576 622.336l-113.664-314.368h-500.736l-70.656 314.368h685.056zM306.176-75.008c-20.737-3.318-36.392-21.079-36.392-42.496s15.655-39.178 36.146-42.463l0.246-0.033h54.272c1.989-0.326 4.281-0.512 6.616-0.512 23.753 0 43.008 19.255 43.008 43.008s-19.255 43.008-43.008 43.008c-2.336 0-4.628-0.186-6.862-0.545l0.246 0.033zM699.392-75.008c-20.737-3.318-36.392-21.079-36.392-42.496s15.655-39.178 36.146-42.463l0.246-0.033h54.272c1.989-0.326 4.281-0.512 6.616-0.512 23.753 0 43.008 19.255 43.008 43.008s-19.255 43.008-43.008 43.008c-2.336 0-4.628-0.186-6.862-0.545l0.246 0.033z" />
<glyph unicode="&#xe807;" glyph-name="search" d="M377.856 107.264c89.473 0.172 171.615 31.415 236.245 83.509l-0.725-0.565 337.92-337.92c7.947-9.974 20.093-16.31 33.718-16.31 23.753 0 43.008 19.255 43.008 43.008 0 13.626-6.336 25.771-16.223 33.651l-0.087 0.067-336.896 337.92c51.16 64.024 82.096 146.159 82.096 235.519 0 209.25-169.63 378.88-378.88 378.88s-378.88-169.63-378.88-378.88c0-209.25 169.63-378.88 378.88-378.88 0.298 0 0.596 0 0.894 0.001h-0.046zM171.008 692.992c52.97 52.834 126.076 85.504 206.812 85.504 161.744 0 292.864-131.12 292.864-292.864s-131.12-292.864-292.864-292.864c-80.736 0-153.841 32.669-206.818 85.51l0.006-0.006c-53.663 52.793-86.915 126.194-86.915 207.36s33.252 154.567 86.876 207.322l0.039 0.038z" />
<glyph unicode="&#xe808;" glyph-name="home" d="M70.656 392.96l21.504 18.432v-528.384c0-23.753 19.255-43.008 43.008-43.008v0h753.664c23.753 0 43.008 19.255 43.008 43.008v0 528.384l22.528-18.432c5.95-3.309 13.049-5.256 20.603-5.256 23.753 0 43.008 19.255 43.008 43.008 0 10.155-3.52 19.488-9.406 26.846l0.066-0.086-204.8 173.056v162.816c0.326 1.989 0.512 4.281 0.512 6.616 0 23.753-19.255 43.008-43.008 43.008s-43.008-19.255-43.008-43.008c0-2.336 0.186-4.628 0.545-6.862l-0.033 0.246v-90.112l-179.2 150.528c-7.42 6.26-17.090 10.064-27.648 10.064s-20.228-3.805-27.712-10.117l0.064 0.053-468.992-395.264c-12.503-7.672-20.718-21.267-20.718-36.781 0-23.753 19.255-43.008 43.008-43.008 12.679 0 24.076 5.486 31.948 14.215l0.034 0.038zM416.768-75.008v308.224h190.464v-308.224zM512 765.696l333.824-282.624v-558.080h-152.576v351.232c0 23.753-19.255 43.008-43.008 43.008v0h-276.48c-23.308-0.573-41.984-19.603-41.984-42.996 0-0.004 0-0.009 0-0.013v0.001-351.232h-153.6v558.080z" />
<glyph unicode="&#xe809;" glyph-name="delivery" horiz-adv-x="1630" d="M1613.824 298.752l-294.912 242.688c-3.243 2.434-6.963 4.505-10.949 6.037l-0.315 0.107c-4.483 2.131-9.694 3.588-15.182 4.083l-0.178 0.013h-195.584v266.24c0 25.449-20.631 46.080-46.080 46.080v0h-1004.544c-25.449 0-46.080-20.631-46.080-46.080v0-797.696c0-25.449 20.631-46.080 46.080-46.080v0h152.576c22.842-77.675 93.488-133.418 177.152-133.418s154.31 55.743 176.823 132.114l0.329 1.303h566.272c22.842-77.675 93.488-133.418 177.152-133.418s154.31 55.743 176.823 132.114l0.329 1.303h111.616c25.449 0 46.080 20.631 46.080 46.080v0 242.688c-0.076 14.482-6.82 27.373-17.316 35.769l-0.092 0.071zM1245.184 459.52v-128h-148.48v128zM95.232 772.864h909.312v-706.56h-450.56c-1.957 8.238-4.066 15.077-6.554 21.731l0.41-1.251c-0.041 2.811-1.209 5.341-3.070 7.166l-0.002 0.002c-4.703 11.452-9.852 21.218-15.798 30.42l0.438-0.724-5.12 6.144c-5.002 6.83-10.039 12.841-15.432 18.509l0.072-0.077-9.216 8.192c-4.939 4.52-10.279 8.885-15.856 12.946l-0.528 0.366-11.264 7.168c-4.966 2.922-11.018 6.005-17.251 8.752l-1.181 0.464-11.264 5.12c-5.717 2.413-12.873 4.861-20.211 6.867l-1.293 0.301-11.264 3.072c-10.313 2.197-22.161 3.455-34.304 3.455s-23.991-1.258-35.423-3.651l1.119 0.196-10.24-3.072c-8.981-2.246-16.49-4.7-23.772-7.606l1.244 0.438-11.264-5.12c-7.816-3.168-14.215-6.259-20.396-9.696l0.94 0.48-10.24-7.168c-6.009-4.683-11.351-9.375-16.406-14.358l0.022 0.022-8.192-7.168c-6.128-6.223-11.836-12.906-17.052-19.975l-0.356-0.505-4.096-5.12c-5.461-8.196-10.599-17.615-14.898-27.483l-0.462-1.189c-0.148-2.791-1.291-5.29-3.077-7.173l0.005 0.005c-2.066-5.383-4.174-12.222-5.883-19.217l-0.261-1.263h-104.448zM378.88-69.888c52.496 0.864 94.72 43.623 94.72 96.244 0 53.161-43.095 96.256-96.256 96.256s-96.256-43.095-96.256-96.256c0-52.621 42.224-95.379 94.639-96.243l0.081-0.001zM1299.456-69.888c52.496 0.864 94.72 43.623 94.72 96.244 0 53.161-43.095 96.256-96.256 96.256s-96.256-43.095-96.256-96.256c0-52.621 42.224-95.379 94.639-96.243l0.081-0.001zM1542.144 67.328h-67.584c-2.412 7.897-4.846 14.348-7.626 20.612l0.458-1.156c0.105 0.551 0.165 1.185 0.165 1.833 0 2.412-0.834 4.629-2.229 6.379l0.016-0.021c-4.761 11.057-9.899 20.476-15.786 29.355l0.426-0.683-5.12 6.144c-5.288 7.2-10.66 13.546-16.431 19.505l0.047-0.049-9.216 7.168c-4.939 4.52-10.279 8.885-15.856 12.946l-0.528 0.366-10.24 7.168c-5.077 3.284-11.114 6.692-17.349 9.759l-1.083 0.481-11.264 5.12c-6.038 2.468-13.547 4.922-21.252 6.891l-1.276 0.277-10.24 2.048c-10.313 2.197-22.161 3.455-34.304 3.455s-23.991-1.258-35.423-3.651l1.119 0.196-11.264-2.048c-8.631-2.307-15.787-4.755-22.73-7.615l1.226 0.447-12.288-5.12c-7.318-3.548-13.355-6.956-19.168-10.682l0.736 0.442-10.24-7.168c-6.561-4.448-12.236-8.823-17.637-13.506l0.229 0.194-8.192-7.168c-5.692-6.406-11.083-13.424-15.956-20.813l-0.428-0.691-4.096-4.096c-5.874-8.528-11.349-18.28-15.917-28.525l-0.467-1.171c0.012-0.198 0.020-0.43 0.020-0.664 0-2.438-0.774-4.695-2.091-6.538l0.023 0.034c-2.309-5.089-4.743-11.54-6.815-18.15l-0.353-1.306h-20.48v172.032h192.512c25.449 0 46.080 20.631 46.080 46.080v0 122.88l203.776-166.912z" />
<glyph unicode="&#xe80a;" glyph-name="avatar" d="M923.648 119.552l-226.304 92.16c-11.528 4.93-19.459 16.174-19.459 29.27 0 0.15 0.001 0.299 0.003 0.448v-0.023 53.248c-0.001 0.102-0.002 0.222-0.002 0.342 0 6.839 2.312 13.138 6.197 18.158l-0.051-0.068c57.493 74.272 92.16 168.743 92.16 271.312 0 0.017 0 0.034 0 0.051v-0.003c0 166.912-105.472 279.552-264.192 279.552s-264.192-112.64-264.192-279.552c0-0.014 0-0.031 0-0.048 0-102.568 34.667-197.040 92.922-272.337l-0.762 1.025c3.834-4.952 6.146-11.251 6.146-18.090 0-0.12-0.001-0.24-0.002-0.36v0.018-53.248c0.002-0.127 0.003-0.276 0.003-0.426 0-13.097-7.931-24.341-19.252-29.192l-0.207-0.079-226.304-92.16c-59.315-24.22-100.352-81.464-100.352-148.293 0-0.066 0-0.132 0-0.197v0.010-88.064c0-23.753 19.255-43.008 43.008-43.008v0h937.984c23.753 0 43.008 19.255 43.008 43.008v0 88.064c0 0.055 0 0.121 0 0.187 0 66.828-41.037 124.072-99.286 147.907l-1.066 0.386zM939.008-75.008h-854.016v46.080c0.361 30.991 19.527 57.417 46.604 68.428l0.5 0.18 226.304 93.184c43.556 17.601 73.728 59.539 73.728 108.525 0 0.007 0 0.014 0 0.020v-0.001 53.248c-0.222 27.266-9.84 52.243-25.77 71.896l0.17-0.216c-45.811 59.871-73.49 135.736-73.728 218.056v0.056c0 143.36 92.16 194.56 179.2 194.56s179.2-51.2 179.2-194.56c-0.238-82.376-27.916-158.241-74.369-218.985l0.641 0.873c-15.76-19.437-25.378-44.414-25.6-71.631v-53.297c0-0.006 0-0.013 0-0.019 0-48.985 30.172-90.923 72.945-108.245l0.783-0.28 226.304-93.184c27.577-11.191 46.743-37.617 47.104-68.563v-0.045z" />
<glyph unicode="&#xe80b;" glyph-name="left" horiz-adv-x="1179" d="M512-160l-512 512 512 512 84.992-84.992-366.592-366.592h948.224v-119.808h-948.224l366.592-367.616z" />
<glyph unicode="&#xe80c;" glyph-name="happy" d="M340.992 480c23.753 0 43.008-19.255 43.008-43.008v0c3.318-20.737 21.079-36.392 42.496-36.392s39.178 15.655 42.463 36.146l0.033 0.246c0 70.692-57.308 128-128 128s-128-57.308-128-128v0c0-23.753 19.255-43.008 43.008-43.008s43.008 19.255 43.008 43.008v0c0 0.004 0 0.008 0 0.012 0 23.393 18.676 42.423 41.931 42.995l0.053 0.001zM683.008 564.992c-70.692 0-128-57.308-128-128v0c3.318-20.737 21.079-36.392 42.496-36.392s39.178 15.655 42.463 36.146l0.033 0.246c-0.326 1.989-0.512 4.281-0.512 6.616 0 23.753 19.255 43.008 43.008 43.008s43.008-19.255 43.008-43.008c0-2.336-0.186-4.628-0.545-6.862l0.033 0.246c0-23.753 19.255-43.008 43.008-43.008s43.008 19.255 43.008 43.008v0c0 70.692-57.308 128-128 128v0zM512 864c-282.77 0-512-229.23-512-512s229.23-512 512-512c282.77 0 512 229.23 512 512v0c0 282.77-229.23 512-512 512v0zM512-75.008c-235.83 0-427.008 191.178-427.008 427.008s191.178 427.008 427.008 427.008c235.83 0 427.008-191.178 427.008-427.008v0c0-235.83-191.178-427.008-427.008-427.008v0zM652.288 254.72l-24.576-25.6c-30.059-28.619-70.829-46.226-115.712-46.226s-85.654 17.607-115.781 46.292l0.069-0.065-24.576 25.6c-7.261 5.79-16.571 9.29-26.698 9.29-23.753 0-43.008-19.255-43.008-43.008 0-10.127 3.5-19.437 9.357-26.785l-0.067 0.087 24.576-25.6c45.047-45.136 107.327-73.059 176.128-73.059s131.081 27.923 176.124 73.055l25.604 25.604c9.974 7.947 16.31 20.093 16.31 33.718 0 23.753-19.255 43.008-43.008 43.008-13.626 0-25.771-6.336-33.651-16.223l-0.067-0.087z" />
<glyph unicode="&#xe80d;" glyph-name="materials" horiz-adv-x="1012" d="M1011.712 864h-683.008v-340.992h-328.704v-683.008h683.008v340.992h328.704v683.008zM959.488 718.592l-275.456-275.456v79.872h-101.376l284.672 285.696-2.048 2.048h94.208v-92.16zM630.784 182.016c-46.080 8.192-116.736 16.384-142.336-69.632-21.614-53.624-48.826-99.92-81.785-141.448l0.889 1.16c-17.569-22.89-33.597-48.752-46.946-76.159l-1.182-2.689h-83.968c-0.002 0.309-0.003 0.674-0.003 1.039 0 42.188 14.253 81.046 38.205 112.024l-0.314-0.423c11.509 13.003 24.649 24.189 39.191 33.353l0.745 0.439c49.73 28.624 84.299 78.776 91.057 137.396l0.079 0.844c2.588 13.887 4.069 29.865 4.069 46.188 0 37.713-7.902 73.58-22.14 106.036l0.664-1.697c-13.844 31.296-21.904 67.795-21.904 106.176 0 12.752 0.89 25.297 2.611 37.575l-0.163-1.415h77.824c2.048-11.264 4.096-22.528 6.144-34.816 11.264-66.56 24.576-150.528 114.688-196.608 4.096-2.048 8.192-4.096 10.24-5.12 3.919-4.017 8.712-7.163 14.073-9.132l0.263-0.084v-43.008zM197.632 134.912c-0.836 7.579-1.313 16.368-1.313 25.268 0 19.732 2.345 38.917 6.772 57.29l-0.338-1.663c8.242 28.201 20.861 52.76 37.266 74.277l-0.402-0.549c37.101 49.942 59.392 112.811 59.392 180.886 0 0.127 0 0.255 0 0.382v-0.020h55.296c-1.406-11.258-2.209-24.287-2.209-37.503 0-44.494 9.095-86.863 25.528-125.351l-0.792 2.085c11.737-25.579 18.581-55.492 18.581-87.005 0-13.039-1.172-25.805-3.416-38.198l0.195 1.298c-4.626-44.471-30.88-81.932-67.918-102.057l-0.69-0.343c-19.662-12.421-36.524-27.004-50.955-43.741l-0.245-0.291c-31.283-39.608-50.179-90.258-50.179-145.321 0-0.391 0.001-0.781 0.003-1.171v0.060h-55.296c20.284 60.053 31.99 129.217 31.99 201.115 0 14.266-0.461 28.424-1.368 42.46l0.099-1.912zM630.784 286.464h-1.024c-65.536 33.792-75.776 94.208-86.016 158.72-1.024 8.192-3.072 16.384-4.096 25.6h91.136zM381.952 571.136l240.64 239.616h172.032l-287.744-286.72h-124.928zM546.816 810.752l-164.864-164.864v164.864zM136.192 470.784c-14.423-53.126-31.543-98.723-52.333-142.229l2.157 5.013c-10.24-26.624-21.504-53.248-32.768-80.896v218.112zM53.248 64.256c19.735 93.914 47.989 176.751 84.858 254.716l-2.938-6.908c21.932 45.076 40.588 97.691 53.278 152.59l0.994 5.106h56.32c-0.158-56.746-18.978-109.065-50.643-151.177l0.467 0.649c-19.19-25.657-34.28-55.687-43.557-88.169l-0.475-1.943c-5.364-21.001-8.443-45.109-8.443-69.937 0-9.628 0.463-19.147 1.368-28.538l-0.093 1.194c0.591-10.138 0.928-21.996 0.928-33.932 0-73.33-12.719-143.689-36.072-208.992l1.352 4.332h-57.344v171.008zM418.816-106.752c9.216 14.336 22.528 32.768 32.768 48.128 35.408 44.988 65.109 96.764 86.676 152.586l1.388 4.086c11.264 39.936 32.768 39.936 87.040 30.72h4.096v-235.52zM683.008 367.36l276.48 275.456v-179.2l-230.4-229.376h-46.080v133.12zM803.84 234.24l155.648 154.624v-154.624z" />
<glyph unicode="&#xe80e;" glyph-name="heart" d="M724.992 864c-84.594-0.543-160.448-37.506-212.749-95.979l-0.243-0.277c-52.544 58.75-128.398 95.713-212.896 96.256h-0.096c-166.871-7.761-299.222-144.937-299.222-313.026 0-4.073 0.078-8.129 0.232-12.164l-0.018 0.582c0-261.12 463.872-671.744 484.352-689.152 7.42-6.26 17.090-10.064 27.648-10.064s20.228 3.805 27.712 10.117l-0.064-0.053c20.48 16.384 484.352 413.696 484.352 688.128 0.162 3.76 0.254 8.172 0.254 12.605 0 168.102-132.373 305.287-298.568 313.002l-0.694 0.026zM512-60.672c-140.288 129.024-427.008 427.008-427.008 600.064-0.159 3.187-0.25 6.92-0.25 10.675 0 121.16 94.36 220.28 213.6 227.883l0.666 0.034c75.277-1.181 140.762-42 176.622-102.458l0.53-0.966c7.745-12.111 21.125-20.025 36.352-20.025s28.606 7.914 36.249 19.853l0.103 0.172c36.214 61.142 101.247 101.867 175.908 103.42l0.22 0.004c119.906-7.637 214.266-106.758 214.266-227.917 0-3.755-0.091-7.488-0.27-11.199l0.020 0.524c0-183.296-285.696-474.112-427.008-600.064z" />
<glyph unicode="&#xe811;" glyph-name="right" horiz-adv-x="1179" d="M666.624 864l512-512-512-512-84.992 84.992 366.592 366.592h-948.224v120.832h948.224l-366.592 366.592z" />
<glyph unicode="&#xe815;" glyph-name="card-payment" horiz-adv-x="1788" d="M1728.512 704.256h-227.328c-32.801 0-59.392-26.591-59.392-59.392v0-48.128h-100.352l-167.936 169.984c-59.916 60.225-142.853 97.496-234.496 97.496s-174.581-37.271-234.482-97.482l-139.278-139.278h-505.856c-32.801 0-59.392-26.591-59.392-59.392v0-668.672c0-32.801 26.591-59.392 59.392-59.392v0h1016.832c32.801 0 59.392 26.591 59.392 59.392v0 226.304h90.112c43.658-50.517 107.651-82.438 179.111-82.944h34.905v-47.104c-0.006-0.305-0.009-0.664-0.009-1.024 0-32.801 26.591-59.392 59.392-59.392 0.003 0 0.006 0 0.009 0h229.376c0.003 0 0.006 0 0.009 0 32.801 0 59.392 26.591 59.392 59.392 0 0.36-0.003 0.719-0.010 1.078l0.001-0.054v649.216c0 32.801-26.591 59.392-59.392 59.392v0zM588.8 507.648h429.056v-95.232h-155.648c-49.636-0.578-93.142-26.293-118.448-64.988l-0.336-0.548h-624.64v160.768zM1017.856-44.288h-899.072v274.432h607.232c18.451-58.902 72.355-100.97 136.144-101.376h154.672zM1408 161.536c-0.291-0.003-0.635-0.004-0.98-0.004-42.054 0-79.003 21.854-100.112 54.824l-0.285 0.476c-10.474 17.12-28.978 28.43-50.141 28.672h-394.275c-1.5-0.326-3.223-0.512-4.99-0.512-13.573 0-24.576 11.003-24.576 24.576s11.003 24.576 24.576 24.576c1.767 0 3.49-0.186 5.151-0.541l-0.161 0.029h393.216c32.801 0 59.392 26.591 59.392 59.392s-26.591 59.392-59.392 59.392v0h-118.784v154.624c0 32.801-26.591 59.392-59.392 59.392v0h-343.040l55.296 55.296c38.786 36.662 91.257 59.2 148.992 59.2s110.206-22.538 149.095-59.296l-0.103 0.096 186.368-186.368c10.743-10.75 25.586-17.401 41.983-17.408h124.929v-316.416zM1669.12 55.040h-108.544v530.432h108.544z" />
<glyph unicode="&#xe816;" glyph-name="filters" horiz-adv-x="1443" d="M466.944 864c-113.541-0.367-208.619-78.978-234.159-184.718l-0.337-1.65h-177.152c-30.539 0-55.296-24.757-55.296-55.296s24.757-55.296 55.296-55.296v0h177.152c27.079-106.068 121.775-183.242 234.496-183.242s207.417 77.174 234.133 181.568l0.363 1.674h686.080c30.539 0 55.296 24.757 55.296 55.296s-24.757 55.296-55.296 55.296v0h-686.080c-25.877 107.39-120.955 186.001-234.455 186.368h-0.041zM466.944 491.264c-71.824 0-130.048 58.224-130.048 130.048s58.224 130.048 130.048 130.048c71.824 0 130.048-58.224 130.048-130.048v0c0-71.824-58.224-130.048-130.048-130.048v0zM977.92 323.328c-113.812-0.484-209.018-79.568-234.168-185.751l-0.328-1.641h-688.128c-30.539 0-55.296-24.757-55.296-55.296s24.757-55.296 55.296-55.296v0h686.080c27.079-106.068 121.775-183.242 234.496-183.242s207.417 77.174 234.133 181.568l0.363 1.674h177.152c30.539 0 55.296 24.757 55.296 55.296s-24.757 55.296-55.296 55.296v0h-177.152c-25.313 107.16-119.478 185.922-232.286 187.39l-0.162 0.002zM977.92-48.384c-71.824 0-130.048 58.224-130.048 130.048s58.224 130.048 130.048 130.048c71.824 0 130.048-58.224 130.048-130.048v0c0-71.824-58.224-130.048-130.048-130.048v0z" />
<glyph unicode="&#xe817;" glyph-name="send" horiz-adv-x="1031" d="M1022.976 855.808c-5.198 5.247-12.406 8.496-20.372 8.496-4.111 0-8.021-0.865-11.556-2.424l0.184 0.072-973.824-423.936c-10.436-4.442-17.62-14.61-17.62-26.456 0-13.365 9.144-24.594 21.518-27.772l0.199-0.043 414.72-114.688 107.52-407.552c3.082-11.797 13.2-20.529 25.5-21.498l0.1-0.006h2.048c0.213-0.006 0.463-0.009 0.714-0.009 11.374 0 21.2 6.622 25.835 16.222l0.075 0.171 431.104 967.68c1.486 3.351 2.352 7.261 2.352 11.372 0 7.966-3.249 15.174-8.494 20.369l-0.002 0.002z" />
<glyph unicode="&#xe818;" glyph-name="cancel" d="M1002.496 842.496c-13.399 13.706-32.075 22.204-52.736 22.204s-39.337-8.498-52.723-22.19l-0.013-0.014-385.024-385.024-385.024 385.024c-13.066 11.448-30.293 18.432-49.152 18.432-41.284 0-74.752-33.468-74.752-74.752 0-18.859 6.984-36.086 18.506-49.238l-0.074 0.086 385.024-385.024-385.024-385.024c-11.448-13.066-18.432-30.293-18.432-49.152 0-41.284 33.468-74.752 74.752-74.752 18.859 0 36.086 6.984 49.238 18.506l-0.086-0.074 385.024 386.048 385.024-386.048c13.775-15.725 33.894-25.6 56.32-25.6 41.284 0 74.752 33.468 74.752 74.752 0 22.426-9.875 42.545-25.514 56.246l-0.086 0.074-386.048 385.024 386.048 385.024c13.455 13.515 21.773 32.154 21.773 52.736s-8.318 39.221-21.776 52.739l0.003-0.003z" />
<glyph unicode="&#xe900;" glyph-name="codacy" d="M165.675 444.8c25.796 92.657 85.082 168.541 163.679 215.406l1.654 0.914 1.707 0.896-76.928 132.821c-116.011-67.883-201.685-176.981-237.568-306.731l-0.853-3.584zM419.157 697.856c27.409 7.668 58.883 12.076 91.387 12.076 0.332 0 0.664 0 0.996-0.001h0.161v153.387h-0.811c-0.097 0-0.211 0-0.326 0-47.924 0-94.317-6.557-138.331-18.823l7.201 1.714zM604.928 697.728c92.56-25.819 168.345-85.104 215.108-163.676l0.914-1.657 0.896-1.707 132.992 76.757c-67.883 115.968-176.896 201.643-306.603 237.568l-3.584 0.853zM0 352v-0.256c0-46.933 6.315-92.373 18.133-135.552l-0.853 3.584 148.309 39.637c-7.695 27.273-12.12 58.594-12.12 90.948 0 0.441 0.001 0.882 0.002 1.322v-0.068 0.341zM68.48 96.213c23.467-40.149 50.347-74.837 81.109-105.6l108.928 108.373c-21.114 21.145-39.652 44.87-55.099 70.659l-0.922 1.661-0.939 1.707zM255.787-90.88c72.504-43.017 159.829-68.44 253.091-68.44 0.528 0 1.056 0.001 1.583 0.002h0.771v153.387h-0.171c-0.179 0-0.391-0.001-0.603-0.001-66.21 0-128.179 18.152-181.204 49.752l1.626-0.898 1.664-0.896zM821.717 172.587c-47.305-80.184-122.646-139.556-212.245-165.098l-2.539-0.619-2.517-0.597 39.723-148.309c133.291 36.693 242.389 122.155 309.163 235.52l1.323 2.389zM1005.952 214.571c11.435 40.405 18.048 86.827 18.048 134.784 0 46.379-6.144 91.307-17.707 134.059l0.811-3.584-148.736-39.723c7.467-27.307 11.733-58.624 11.733-90.965 0-33.707-4.651-66.347-13.355-97.28l0.597 2.517z" />
<glyph unicode="&#xe901;" glyph-name="tripadvisor" d="M981.803 457.301c11.989 51.499 50.133 103.083 50.133 103.083h-171.179c-96.043 62.080-212.523 94.976-341.888 94.976-133.973 0-255.061-33.28-350.464-96.043h-160.469c0 0 37.76-50.603 49.92-101.803-31.232-42.965-49.792-94.805-49.792-151.765 0-141.483 115.072-256.341 256.512-256.341 80.683 0 152.363 37.76 199.723 96.171l54.4-81.749 55.083 82.603c24.32-31.403 56.32-57.003 94.080-74.24 62.080-28.16 131.925-31.403 195.925-7.68 132.523 49.237 200.363 197.163 151.723 329.643-8.917 23.723-20.48 44.843-34.56 63.36zM846.507 112.896c-51.2-18.987-106.88-16.853-156.587 6.101-35.157 16.341-64.128 41.899-84.821 73.685-8.576 12.757-16 26.581-21.461 41.429-6.229 16.853-9.387 34.261-11.051 51.84-3.157 35.499 1.92 71.381 17.28 104.661 23.040 49.664 64.043 87.509 115.243 106.496 106.24 38.997 224-15.403 263.083-121.216 39.083-105.856-15.36-223.787-120.96-262.955zM434.005 191.147c-36.821-54.229-99.072-90.155-169.515-90.155-112.896 0-204.843 91.989-204.843 204.672s91.989 204.885 204.843 204.885 204.715-92.203 204.715-204.885c0-6.997-1.28-13.397-2.048-20.437-3.456-34.603-14.549-67.243-33.152-94.763zM134.4 308.352c0-70.016 57.003-126.763 126.763-126.763s126.635 56.747 126.635 126.763c0 69.76-56.875 126.464-126.549 126.464-69.803 0-126.763-56.704-126.763-126.464zM648.448 308.352c0-70.016 56.704-126.763 126.635-126.763 69.803 0 126.507 56.747 126.507 126.763 0 69.76-56.704 126.464-126.507 126.464-69.76 0-126.763-56.704-126.763-126.464zM178.176 308.352c0 45.696 37.077 82.901 82.603 82.901 45.397 0 83.157-37.248 83.157-82.901 0-45.909-37.077-83.243-83.157-83.243-46.123 0-83.243 37.333-83.243 83.243zM691.584 308.352c0 45.696 37.077 82.901 83.157 82.901 45.483 0 82.645-37.248 82.645-82.901 0-45.909-37.12-83.243-83.285-83.243-46.037 0-83.157 37.333-83.157 83.243zM518.656 610.56c92.203 0 175.403-16.597 248.405-49.579-27.52-0.768-54.4-5.589-81.323-15.36-64.64-23.68-115.84-71.040-144-133.333-13.44-28.16-20.48-57.984-23.083-88.107-9.6 131.243-117.76 235.307-250.923 237.995 73.003 31.317 157.525 48.384 249.045 48.384z" />
<glyph unicode="&#xf099;" glyph-name="twitter" horiz-adv-x="950" d="M925.696 630.528q-37.888-55.296-92.16-95.232 0-8.192 0-23.552 0-74.752-21.504-148.48t-65.536-142.336-105.472-119.808-147.456-83.968-185.344-30.72q-154.624 0-282.624 82.944 19.456-2.048 44.032-2.048 129.024 0 229.376 78.848-60.416 1.024-107.52 36.864t-65.536 91.136q19.456-3.072 34.816-3.072 24.576 0 49.152 6.144-64.512 13.312-106.496 63.488t-41.984 117.76v2.048q38.912-21.504 83.968-23.552-37.888 25.6-60.416 65.536t-22.528 88.064q0 50.176 25.6 93.184 69.632-84.992 167.936-136.192t212.992-56.32q-5.12 21.504-5.12 41.984 0 76.8 54.272 130.048t130.048 54.272q80.896 0 135.168-58.368 62.464 12.288 117.76 45.056-21.504-65.536-81.92-102.4 53.248 6.144 106.496 28.672z" />
<glyph unicode="&#xf09a;" glyph-name="facebook" horiz-adv-x="585" d="M547.84 856.832v-150.528h-89.088q-49.152 0-66.56-20.48t-17.408-61.44v-108.544h167.936l-22.528-168.96h-145.408v-434.176h-175.104v434.176h-145.408v168.96h145.408v124.928q0 106.496 59.392 164.864t158.72 58.368q83.968 0 130.048-7.168z" />
<glyph unicode="&#xf0e1;" glyph-name="linkedin" horiz-adv-x="878" d="M199.68 506.624v-566.272h-188.416v566.272h188.416zM211.968 681.728q0-41.984-29.696-69.632t-76.8-27.648h-1.024q-47.104 0-75.776 27.648t-28.672 69.632 29.696 69.632 76.8 27.648 75.776-27.648 29.696-69.632zM877.568 264.96v-324.608h-187.392v303.104q0 60.416-23.552 94.208t-72.704 33.792q-35.84 0-59.392-19.456t-36.864-49.152q-6.144-17.408-6.144-46.080v-316.416h-188.416q1.024 228.352 1.024 369.664t0 168.96l-1.024 27.648h188.416v-81.92h-1.024q11.264 18.432 23.552 31.744t31.744 29.696 50.176 24.576 65.536 9.216q97.28 0 156.672-64.512t59.392-190.464z" />
<glyph unicode="&#xf16a;" glyph-name="youtube-play" d="M406.528 219.904l276.48 142.336-276.48 144.384v-286.72zM512 712.448q96.256 0 185.344-3.072t131.072-5.12l41.984-2.048q0 0 9.216-1.024t13.312-2.048 13.312-2.048 16.384-5.12 16.384-7.168 17.408-11.264 16.384-15.36q4.096-3.072 9.216-10.24t16.384-33.792 15.36-57.344q4.096-36.864 7.168-77.824t3.072-65.536v-100.352q1.024-82.944-10.24-165.888-4.096-30.72-14.336-56.32t-18.432-35.84l-8.192-9.216q-7.168-8.192-16.384-15.36t-17.408-10.24-16.384-7.168-16.384-5.12-13.312-2.048-13.312-2.048-9.216-1.024q-143.36-11.264-358.4-11.264-117.76 2.048-205.824 4.096t-113.664 4.096l-28.672 3.072-20.48 2.048q-20.48 3.072-30.72 5.12t-29.696 12.288-31.744 23.552q-4.096 3.072-9.216 10.24t-16.384 33.792-15.36 57.344q-4.096 36.864-7.168 77.824t-3.072 65.536v100.352q-1.024 82.944 10.24 165.888 4.096 31.744 14.336 56.32t18.432 35.84l8.192 9.216q8.192 9.216 16.384 15.36t17.408 11.264 16.384 7.168 16.384 5.12 13.312 2.048 13.312 2.048 9.216 1.024q143.36 10.24 358.4 10.24z" />
<glyph unicode="&#xf16d;" glyph-name="instagram" horiz-adv-x="878" d="M584.704 352q0 60.416-41.984 103.424t-103.424 43.008-103.424-43.008-43.008-103.424 43.008-103.424 103.424-43.008 103.424 43.008 41.984 103.424zM663.552 352q0-93.184-65.536-159.744t-158.72-65.536-159.744 65.536-65.536 159.744 65.536 159.744 159.744 65.536 158.72-65.536 65.536-159.744zM726.016 586.496q0-21.504-15.36-36.864t-37.888-15.36-36.864 15.36-15.36 36.864 15.36 36.864 36.864 15.36 37.888-15.36 15.36-36.864zM439.296 712.448q-4.096 0-44.032 0t-60.416 0-55.296-2.048-58.368-5.12-40.96-11.264q-28.672-11.264-50.176-32.768t-33.792-50.176q-6.144-16.384-10.24-40.96t-6.144-59.392-1.024-54.272 0-60.416 0-44.032 0-44.032 0-60.416 1.024-54.272 6.144-59.392 10.24-40.96q12.288-28.672 33.792-50.176t50.176-32.768q16.384-6.144 40.96-11.264t58.368-5.12 55.296-2.048 60.416 0 44.032 0 43.008 0 60.416 0 55.296 2.048 59.392 5.12 39.936 11.264q28.672 11.264 51.2 32.768t32.768 50.176q6.144 16.384 10.24 40.96t6.144 59.392 1.024 54.272 0 60.416 0 44.032 0 44.032 0 60.416-1.024 54.272-6.144 59.392-10.24 40.96q-11.264 28.672-32.768 50.176t-51.2 32.768q-16.384 6.144-39.936 11.264t-59.392 5.12-55.296 2.048-60.416 0-43.008 0zM877.568 352q0-131.072-3.072-181.248-5.12-118.784-70.656-184.32t-183.296-70.656q-51.2-3.072-181.248-3.072t-181.248 3.072q-118.784 6.144-184.32 70.656t-70.656 184.32q-3.072 50.176-3.072 181.248t3.072 181.248q5.12 118.784 70.656 184.32t184.32 70.656q50.176 3.072 181.248 3.072t181.248-3.072q118.784-6.144 183.296-70.656t70.656-184.32q3.072-50.176 3.072-181.248z" />
</font>
</defs>
</svg>
